# xmcd CD database file
# Copyright (C) 1995-1998 Ti Kan
#
# Track frame offsets:
#	150
#	13066
#	26469
#	40098
#	48935
#	61076
#	75034
#	88126
#	98917
#	112776
#	126574
#	137115
#	149048
#	162366
#	176453
#	191010
#	203799
#	217511
#	234042
#	246980
#	258708
#	269065
#
# Disc length: 3814 seconds
#
# Revision: 1
# Processed by: cddbd v1.4b41PL3 Copyright (c) Steve Scherf et al.
# Submitted via: CDex 1.30Release
#
DISCID=2e0ee416
DTITLE=Various Artist - Introducing the Blues
DYEAR=2001
DGENRE=Blues
TTITLE0=Muddy Waters - Hoochie Koochie Man
TTITLE1=Bobby Bland - Further up the road
TTITLE2=T-Bone Walker - Call it Stormy Monday
TTITLE3=Big Joe Williams - Baby please don't go
TTITLE4=John Lee Hooker - Boom, boom
TTITLE5=Etta James - I just wanna make love to you
TTITLE6=Big Joe Turner - Roll 'em Pete
TTITLE7=Lightnin' Hopkins - Short haired woman
TTITLE8=Howlin' Wolf - smokestack lightnin'
TTITLE9=Albert COllins - Frosty
TTITLE10=Memphis Slim - How long
TTITLE11=Little Walter - My Babe
TTITLE12=Leadbelly - Rock Island Line
TTITLE13=Sonny Boy Williamson - Help Me
TTITLE14=Charles Brown with Johnny Moore's Three Blazers - Drifting Blues
TTITLE15=Big Mama Thornton - Hound Dog
TTITLE16=Slim Harpo - I'm a King Bee
TTITLE17=B.B. King - How blue can you get?
TTITLE18=Big Bill Broonzy - Little City Woman
TTITLE19=Fats Domino - Ther fat man
TTITLE20=Buddy Guy - First time I met the Blues
TTITLE21=Ike Turner's Kings of Rhythm - Prancing
EXTD=YEAR: 2001 ID3G:   0
EXTT0=
EXTT1=
EXTT2=
EXTT3=
EXTT4=
EXTT5=
EXTT6=
EXTT7=
EXTT8=
EXTT9=
EXTT10=
EXTT11=
EXTT12=
EXTT13=
EXTT14=
EXTT15=
EXTT16=
EXTT17=
EXTT18=
EXTT19=
EXTT20=
EXTT21=
PLAYORDER=
